<svg id="Layer_1" data-name="Layer 1" xmlns="http://www.w3.org/2000/svg" viewBox="0 0 100 100"><defs><style>.cls-1{fill:#fff;}.cls-2{fill:#666;stroke:#666;stroke-miterlimit:10;}</style></defs><rect class="cls-1" x="0.5" y="0.5" width="99" height="99" rx="49.5"/><path class="cls-2" d="M55.73,42.56A75.93,75.93,0,0,0,61,36.25c4.61-6.92,11.08-9.18,19-8.14,9.89,1.29,16.18,13.48,10.18,21.23C89,50.86,88.48,53,88,54.94c-1,3.57-2.08,4.7-5.79,5.11-7.21.78-13.77-1.21-20-4.62-1.59-.87-3.27-1.57-4.9-2.35l-.45.75a19.47,19.47,0,0,0,1.78,1.51C65.48,60,70.49,66,72.4,74.17s-2,13.18-10.26,13.75c-2.19.15-4.32,1.06-6.51,1.27a6.14,6.14,0,0,1-3.78-.82c-7-4.72-9.65-11.59-9-19.75a90.41,90.41,0,0,1,2-10.88c.22-1.09.45-1.85-1-2.3a6.44,6.44,0,0,1-2.48-11,8.75,8.75,0,0,1,6.73-2.55,5.38,5.38,0,0,1,3.34,1.64C54.37,46.89,53,53.06,49,55c-.22.11-.52,0-1.11,0,.32-.62.49-1,.72-1.4a9.13,9.13,0,0,0,.73-8.55,3.13,3.13,0,0,0-2.2-1.7c-2.51-.13-4.38,1.26-5.78,3.27a4.6,4.6,0,0,0,0,5.69,6.48,6.48,0,0,0,3.19,2.27c1.7.47,2,1.18,1.64,2.79-.89,3.95-2,7.9-2.33,11.91-.57,7.37,2,13.53,8.37,17.78,1.38.92,2.67,1.32,4.17.12a4.47,4.47,0,0,1,2.26-.6c.71-.08,1.44.1,2.16.08,5.58-.1,9.34-.87,8.54-8.73a24.71,24.71,0,0,0-7.8-16,58.36,58.36,0,0,1-5-5.41c-.86-1.05-1.6-2.52-.32-3.72s2.6-.63,3.79.22c5,3.6,10.73,5.36,16.74,6.28a15.44,15.44,0,0,0,3.9.08C84,59,85,57.85,85.75,54.5a13.1,13.1,0,0,1,1.85-5C93.83,41.12,84.71,29,75.29,29.56c-5.51.35-9.85,2.45-13.08,7A60.84,60.84,0,0,1,56.74,43c-.42.44-1.38.37-2.09.54-.16-.74-.64-1.59-.42-2.2a17.13,17.13,0,0,1,2.14-4.25C59.86,32.29,63.46,27.55,67,22.8s1.71-8.63-3.92-10c-4.78-1.17-8.33-.23-12.13,2.87-3.25,2.65-5.23,5.39-5.43,9.58-.16,3.33-.58,6.65-1,10a8.24,8.24,0,0,1-1.28,2.4c-.84-.49-2-.79-2.45-1.51a25.13,25.13,0,0,1-2.51-4.76c-1.22-2.94-2.05-6.06-3.47-8.89-2.21-4.37-5.34-5.1-9.53-2.6a26.07,26.07,0,0,0-2.71,1.81c-2.48,2-5.74,3.53-6,7.1-.33,5.35-.62,11,3.45,15.24,1.87,2,4.58,3.16,7,4.56,1.74,1,3.67,1.69,5.42,2.68.68.39,1.1,1.25,2.06,2.4a19.87,19.87,0,0,1-3.95.59c-2.6-.18-5.18-.65-7.77-.87a11.83,11.83,0,0,0-3.9.16c-6.72,1.74-8.61,3.79-9.1,10.12A27.54,27.54,0,0,0,10,68.83c.4,3.59,2.16,5.39,5.67,6.25a21.76,21.76,0,0,1,4.11,1.36A7.93,7.93,0,0,0,28,75.8c5.25-3.47,10.24-7.2,12.49-13.46a1.23,1.23,0,0,1,.9-.8A13,13,0,0,1,40.74,64,30.84,30.84,0,0,1,26.46,78.42c-3.41,1.64-6.85,1.71-10.12-.55A12.58,12.58,0,0,0,14.2,76.8,11,11,0,0,1,8.13,62.94c.17-.48.34-.95.5-1.44,2.18-6.58,5.13-8.89,12.23-9a90,90,0,0,1,9.5.92c.72.07,1.45,0,2.63,0a7.78,7.78,0,0,0-5.5-3.22c-6.43-1.2-10.71-4.82-12.81-11-1.84-5.42-1.1-12.93,5.53-16.73a30.17,30.17,0,0,0,3.2-2.61c5-3.91,10.46-2.61,13,3.2,1.22,2.86,2,5.91,3.16,8.79a44.8,44.8,0,0,0,2.65,4.78l.83-.24c0-.79.11-1.59.14-2.39.11-3.77.12-7.54.37-11.3a6.56,6.56,0,0,1,1.28-3.4A27.92,27.92,0,0,1,56,11a5.46,5.46,0,0,1,2.76-.06c1.72.26,3.4.74,5.12,1,4.89.78,7.39,5.33,5.05,9.73a65.12,65.12,0,0,1-4.86,6.94c-2.61,3.65-5.25,7.28-7.82,11a14.24,14.24,0,0,0-1.13,2.51Z"/></svg>